<svg xmlns="http://www.w3.org/2000/svg" width="107.938" height="64.88" viewBox="0 0 107.938 64.88">
  <g id="Group_128" data-name="Group 128" transform="translate(-314 -27)">
    <g id="Group_127" data-name="Group 127">
      <g id="Group_1" data-name="Group 1" transform="translate(314 27)">
        <path id="Path_1" data-name="Path 1" d="M79.6,13.9C69.138,6.129,52.544,0,36.1,0V1.794h0c17.341,0,31.543,13.753,31.543,30.646S53.591,63.086,36.1,63.086h0V64.88c16.444,0,33.038-6.129,43.353-13.9,7.026-5.232,10.614-11.81,10.614-18.537.149-6.877-3.588-13.3-10.465-18.537" transform="translate(17.867)" fill="#008ab4"/>
        <path id="Path_2" data-name="Path 2" d="M53.967,63.086c-17.341,0-31.543-13.753-31.543-30.646S36.476,1.794,53.967,1.794h0V0C37.523,0,20.929,6.129,10.614,13.9,3.588,19.135,0,25.563,0,32.44s3.588,13.3,10.614,18.537c10.315,7.774,27.058,13.9,43.353,13.9V63.086h0" fill="#b5007c"/>
        <path id="Path_3" data-name="Path 3" d="M15.1,31.846c0,16.893,14.052,30.646,31.543,30.646h0c17.341,0,31.543-13.753,31.543-30.646S64.134,1.2,46.643,1.2h0C29.152,1.2,15.1,14.953,15.1,31.846" transform="translate(7.474 0.594)" fill="#fff"/>
        <path id="Path_4" data-name="Path 4" d="M49.392,25.463c-1.495-.747-3.139-1.2-3.139-2.093a1.061,1.061,0,0,1,1.2-1.046,3.666,3.666,0,0,1,3.139,2.242h1.644V20.978H50.588v1.2A5.516,5.516,0,0,0,47,20.679c-2.392,0-4.634,1.345-4.634,3.588,0,1.794.9,2.99,2.84,3.887C47.6,29.5,48.644,29.8,48.644,30.844a1.155,1.155,0,0,1-1.2,1.046A3.542,3.542,0,0,1,44.309,29.5H42.515v3.737h1.794v-1.2a5.9,5.9,0,0,0,3.737,1.495c3.438,0,4.634-2.242,4.634-3.887-.149-2.541-1.794-3.438-3.289-4.186m14.8-.9A3.654,3.654,0,0,0,60.3,20.679a6.04,6.04,0,0,0-4.186,1.495v-1.2H54.474v3.588h1.495a2.971,2.971,0,0,1,2.392-1.943c.6,0,1.2.448,1.2,1.644v1.345a3.672,3.672,0,0,0-2.242-.747c-1.345,0-3.737,1.345-3.737,4.634,0,2.242,1.2,4.036,3.438,4.036a3,3,0,0,0,2.691-1.495v1.2h5.681V31.592h-1.2Zm-4.485,5.083c0,1.345-.6,1.644-.9,1.644-.6,0-1.046-.448-1.046-1.644,0-1.794.747-2.691,1.345-2.691a.684.684,0,0,1,.6.747C59.707,28,59.707,29.648,59.707,29.648ZM29.658,31.442H24.576V24.566h2.541V26.21h2.242V20.978H27.117v1.644H24.576v-5.98h4.784v2.392h2.093V14.7H17.4v1.794h1.644v14.8H17.4v1.943H31.751V28.6H29.509v2.84Zm9.867-10.465H33.246v1.644h1.495v8.97H33.246v1.644H41.02V31.592H39.525Zm-2.392-1.2a2.691,2.691,0,1,0-2.691-2.691A2.68,2.68,0,0,0,37.133,19.782Zm35.729,11.81V20.978H66.583v1.644h1.495v8.97H66.583v1.644h7.774V31.592ZM70.47,19.782a2.691,2.691,0,1,0-2.691-2.691A2.68,2.68,0,0,0,70.47,19.782Z" transform="translate(8.612 7.127)"/>
      </g>
    </g>
  </g>
</svg>
